<svg height="56" viewBox="0 0 56 56" width="56" xmlns="http://www.w3.org/2000/svg"><path d="m41.3476 5.8633c-10.8515 0-15.9609 4.3125-15.9609 15.2109v16.2422l.1875 6.3516-4.6875-5.1328-7.6641-7.6876c-.375-.3749-.9374-.5625-1.5-.5625-1.1484 0-2.0156.8907-2.0156 2.0391 0 .5625.2109 1.0547.6563 1.5234l15.5625 15.586c.4453.4688.9843.7031 1.5468.7031.586 0 1.125-.2343 1.5704-.7031l15.5624-15.586c.4454-.4687.6563-.9609.6563-1.5234 0-1.1484-.8672-2.0391-2.0391-2.0391-.539 0-1.1015.1876-1.4765.5625l-7.6875 7.6876-4.6875 5.1562.2109-6.375-.0234-16.0313c-.0234-8.4843 3.6562-11.3202 12-11.3202 1.0781 0 1.8515.0468 2.6484.0468 1.1953 0 2.086-.7734 2.086-1.9922 0-1.1953-.8438-1.8046-1.7578-1.9922-.7032-.1171-1.8516-.164-3.1876-.164z"/></svg>